<svg xmlns="http://www.w3.org/2000/svg" width="33" height="27" viewBox="0 0 33 27"><path d="M32.95 13.35c-.22-1.3-1.15-2.4-2.36-2.8-.52-.16-1.04-.2-1.56-.13-.03 0-.03-.02-.04-.03-.73-2.66-2.3-5.05-4.43-6.74C22.37 1.92 19.77 1 17 1c-2.76 0-5.38.92-7.57 2.66C7.3 5.36 5.73 7.74 5 10.4l-.04.02c-.52-.08-1.04-.03-1.55.14-1.2.4-2.13 1.5-2.35 2.8-.18 1.06.1 2.14.76 2.96.67.82 1.65 1.3 2.67 1.3.17 0 .33-.02.5-.04 0 0 .02 0 .03.03.73 2.66 2.3 5.05 4.43 6.74C11.63 26.08 14.23 27 17 27c2.76 0 5.38-.92 7.57-2.66 2.12-1.7 3.7-4.08 4.43-6.73l.04-.02c.16.02.32.04.5.04 1 0 2-.48 2.65-1.3.65-.82.93-1.9.75-2.97zm-1.48 2.35c-.5.6-1.2.94-1.94.94-.12 0-.24 0-.36-.03-.48-.06-.93.25-1.07.74-.68 2.45-2.13 4.66-4.1 6.22-2.02 1.6-4.44 2.46-7 2.46-2.56 0-4.98-.85-7-2.46C8.03 22 6.58 19.8 5.9 17.34c-.12-.45-.5-.74-.93-.74h-.14c-.12.03-.24.04-.36.04-.75 0-1.45-.34-1.94-.94-.5-.6-.7-1.4-.55-2.18.16-.94.83-1.74 1.7-2.03.4-.14.77-.17 1.15-.1.48.06.93-.25 1.07-.74C6.58 8.2 8.03 6 10 4.44c1.13-.9 2.4-1.57 3.73-1.98-.45.53-.7 1.14-.7 1.74 0 .72.37 1.36 1.03 1.8.7.44 1.68.67 2.94.67 1.03 0 1.83-.13 2.4-.38.82-.38.95-.94.95-1.24 0-1.1-1.5-1.98-3.35-1.98-.26 0-.47.22-.47.5 0 .26.2.48.47.48 1.56 0 2.4.7 2.4 1 0 .08-.1.2-.38.33-.3.13-.9.3-2.02.3-1.07 0-1.9-.2-2.44-.54-.4-.25-.58-.58-.58-.96 0-1.03 1.32-2.22 3.02-2.22 2.56 0 4.98.85 7 2.46 1.97 1.56 3.42 3.77 4.1 6.22.14.5.6.8 1.07.73.38-.07.76-.04 1.14.1.9.28 1.56 1.08 1.72 2.02.14.8-.06 1.57-.55 2.18zM17 16.64c-2.2 0-3.98 1.86-3.98 4.14 0 2.28 1.8 4.13 3.98 4.13 2.2 0 3.98-1.84 3.98-4.12 0-2.28-1.8-4.14-3.98-4.14zm-1.03 6.22c0-.6.46-1.07 1.03-1.07.57 0 1.03.47 1.03 1.06 0 .6-.46 1.08-1.03 1.08-.57 0-1.03-.48-1.03-1.08zm2.98.34l.02-.34c0-.96-.64-1.77-1.5-2v-.6c0-.28-.2-.5-.47-.5-.26 0-.47.22-.47.5v.6c-.86.23-1.5 1.04-1.5 2 0 .12 0 .23.02.34-.66-.58-1.1-1.45-1.1-2.42 0-1.75 1.38-3.16 3.05-3.16s3.04 1.4 3.04 3.16c0 .97-.43 1.84-1.1 2.42zm-6-10.78c0-.27-.22-.48-.48-.47-.55.02-1.14.1-1.77.62-.2.17-.24.47-.08.7.1.1.23.18.37.18.1 0 .2-.04.28-.1.4-.33.75-.4 1.23-.43.27 0 .47-.23.46-.5zm-.7 1.6c-.4 0-.73.35-.73.76v.52c0 .42.32.75.72.75.4 0 .72-.33.72-.75v-.52c0-.4-.32-.75-.72-.75zm11.05-1.45c-.63-.5-1.22-.6-1.77-.62-.26 0-.48.2-.5.47 0 .27.2.5.46.5.47.02.82.1 1.22.42.1.07.2.1.3.1.13 0 .27-.06.36-.18.16-.22.12-.52-.08-.7zm-1.54 1.46c-.4 0-.72.34-.72.75v.52c0 .42.32.75.72.75.4 0 .72-.33.72-.75v-.52c0-.4-.32-.75-.72-.75z"/></svg>