<svg xmlns="http://www.w3.org/2000/svg" width="28" height="28" viewBox="0 0 28 28"><path d="M14.5 1C7.06 1 1 7.06 1 14.5S7.06 28 14.5 28 28 21.94 28 14.5 21.94 1 14.5 1zM27 16.5l-1.64-2.72 1.13-3.33c.42 1.28.66 2.63.66 4.05 0 .68-.06 1.34-.16 2zm-3.2 6.56c-.05 0-.1-.02-.16 0l-4.1.65c0-.04 0-.1-.04-.14l-2.32-3.87 3.75-5.8h3.56c0 .06 0 .1.03.15l2.2 3.66c-.52 2.04-1.54 3.86-2.92 5.36zm-4.25 1.5l3.25-.52c-1.4 1.23-3.1 2.15-4.94 2.66zM6.35 4.84c2.12-1.8 4.86-2.92 7.85-3 .02.07.05.12.1.17l2.33 2.2-.92 3.45-6 2.3c-.02 0-.04-.03-.07-.05L5.9 7.92zm10.84-1.26l-1.8-1.7c1.64.1 3.2.54 4.62 1.23zm-6.95 13.76l-.34-6.56 6.14-2.36 4.14 5.1-3.58 5.52zm15.77-8.07c0 .02-.03.04-.04.06l-1.27 3.74h-3.8l-4.34-5.35.9-3.32 3.48-.58c.07 0 .14-.05.2-.1 2.12 1.32 3.83 3.25 4.88 5.55zM5.35 5.77L5 8.12 2.76 9.8c.6-1.5 1.5-2.88 2.6-4.03zm-3.06 5.4s.03 0 .04-.02L5.6 8.72l3.45 1.83.37 7.14v.02L6.2 20.94c-.03.03-.05.06-.06.1L3 19.7h-.04c-.7-1.6-1.12-3.35-1.12-5.2 0-1.15.16-2.26.45-3.32zm1.26 9.7l2.3.97L7.6 25.1c-1.66-1.08-3.04-2.54-4.04-4.24zm5.4 5l-.04-.08-2.24-4.2.1-.06 3.38-3.35 6.12 1.63 2.5 4.17.07.1-2.3 2.9c-.66.1-1.35.16-2.05.16-2 0-3.88-.47-5.55-1.3z" fill="#000000"/></svg>