<svg id="SvgjsSvg1008" xmlns="http://www.w3.org/2000/svg" version="1.1" xmlns:xlink="http://www.w3.org/1999/xlink" xmlns:svgjs="http://svgjs.com/svgjs" width="48" height="42" viewBox="0 0 48 42"><title>Forma 1</title><desc>Created with Avocode.</desc><defs id="SvgjsDefs1009"></defs><path id="SvgjsPath1010" d="M545.882 1924.14C547.058 1923.65 547.5509999999999 1922.26 547.02 1921.13L545.162 1917.2700000000002C544.6310000000001 1916.1800000000003 543.342 1915.6900000000003 542.205 1916.1800000000003C538.9820000000001 1917.5300000000002 536.214 1919.3000000000002 534.015 1921.4300000000003C531.323 1923.9500000000003 529.503 1926.8400000000004 528.5169999999999 1930.0300000000002C527.531 1933.2500000000002 526.9999999999999 1937.64 526.9999999999999 1943.2300000000002V1954.7500000000002C526.9999999999999 1955.9900000000002 528.0239999999999 1957.0000000000002 529.2749999999999 1957.0000000000002H544.1759999999998C545.4269999999998 1957.0000000000002 546.4509999999998 1955.9900000000002 546.4509999999998 1954.7500000000002V1940.0100000000002C546.4509999999998 1938.7700000000002 545.4269999999998 1937.7500000000002 544.1759999999998 1937.7500000000002H537.0479999999998C537.1239999999998 1933.9600000000003 538.0339999999998 1930.9300000000003 539.7019999999998 1928.6400000000003C541.0669999999998 1926.8000000000004 543.1149999999998 1925.3000000000004 545.8819999999997 1924.1400000000003ZM572.65 1924.14C573.826 1923.65 574.319 1922.26 573.788 1921.13L571.9300000000001 1917.3100000000002C571.3990000000001 1916.2200000000003 570.11 1915.7300000000002 568.9730000000001 1916.2200000000003C565.7880000000001 1917.5700000000002 563.0580000000001 1919.3300000000002 560.821 1921.4300000000003C558.129 1923.9900000000002 556.2710000000001 1926.8700000000003 555.2850000000001 1930.0600000000004C554.2990000000001 1933.2100000000005 553.8070000000001 1937.6000000000004 553.8070000000001 1943.2300000000005V1954.7500000000005C553.8070000000001 1955.9900000000005 554.8300000000002 1957.0000000000005 556.0810000000001 1957.0000000000005H570.9820000000001C572.2330000000001 1957.0000000000005 573.2570000000001 1955.9900000000005 573.2570000000001 1954.7500000000005V1940.0100000000004C573.2570000000001 1938.7700000000004 572.2330000000001 1937.7500000000005 570.9820000000001 1937.7500000000005H563.816C563.892 1933.9600000000005 564.802 1930.9300000000005 566.47 1928.6400000000006C567.835 1926.8000000000006 569.883 1925.3000000000006 572.65 1924.1400000000006Z " fill="#d3d3d3" fill-opacity="1" transform="matrix(1,0,0,1,-527,-1915)"></path></svg>