<svg id="SvgjsSvg1071" xmlns="http://www.w3.org/2000/svg" version="1.1" xmlns:xlink="http://www.w3.org/1999/xlink" xmlns:svgjs="http://svgjs.com/svgjs" width="37" height="36" viewBox="0 0 37 36"><title>Shape 1</title><desc>Created with Avocode.</desc><defs id="SvgjsDefs1072"></defs><path id="SvgjsPath1073" d="M279.006 593.562C278.86499999999995 593.187 278.441 592.995 278.05899999999997 593.133L270.39399999999995 595.9110000000001C270.01199999999994 596.0500000000001 269.81699999999995 596.466 269.95799999999997 596.841C270.068 597.134 270.34999999999997 597.315 270.64899999999994 597.315C270.7339999999999 597.315 270.81999999999994 597.3000000000001 270.90399999999994 597.2700000000001L278.56999999999994 594.4920000000001C278.95199999999994 594.354 279.14699999999993 593.9370000000001 279.0059999999999 593.5620000000001ZM269.233 597.104C269.092 596.729 268.669 596.537 268.287 596.676L267.962 596.793C267.58 596.931 267.385 597.348 267.526 597.723C267.635 598.015 267.91700000000003 598.1959999999999 268.217 598.1959999999999C268.30199999999996 598.1959999999999 268.388 598.1819999999999 268.472 598.151L268.79699999999997 598.034C269.179 597.895 269.37399999999997 597.479 269.23299999999995 597.104ZM279.006 590.612C278.86499999999995 590.237 278.441 590.045 278.05899999999997 590.184L272.00199999999995 592.379C271.61999999999995 592.518 271.42499999999995 592.934 271.566 593.309C271.67499999999995 593.601 271.957 593.7819999999999 272.25699999999995 593.7819999999999C272.3419999999999 593.7819999999999 272.42799999999994 593.7679999999999 272.51199999999994 593.737L278.56999999999994 591.5419999999999C278.95199999999994 591.4039999999999 279.14699999999993 590.987 279.0059999999999 590.612ZM279.006 587.693C278.86499999999995 587.318 278.441 587.126 278.05899999999997 587.264L272.00199999999995 589.46C271.61999999999995 589.5980000000001 271.42499999999995 590.014 271.566 590.39C271.67499999999995 590.682 271.957 590.8629999999999 272.25699999999995 590.8629999999999C272.3419999999999 590.8629999999999 272.42799999999994 590.848 272.51199999999994 590.818L278.56999999999994 588.6229999999999C278.95199999999994 588.4839999999999 279.14699999999993 588.068 279.0059999999999 587.693ZM281.518 574.447L263.755 568.009C263.59 567.95 263.409 567.95 263.245 568.009L245.482 574.447C245.424 574.469 245.368 574.496 245.316 574.532C245.118 574.667 245 574.889 245 575.1260000000001V595.8380000000001C245 596.1410000000001 245.192 596.412 245.482 596.517L263.245 602.955C263.32800000000003 602.985 263.414 603 263.5 603C263.587 603 263.673 602.984 263.755 602.954V602.9549999999999L281.518 596.5169999999999C281.808 596.4119999999999 282 596.141 282 595.838V575.126C282 574.823 281.808 574.552 281.518 574.447ZM246.474 595.334V576.165L249.791 577.367V586.1379999999999C249.791 586.4409999999999 249.983 586.713 250.273 586.8179999999999L258.233 589.7029999999999C258.31600000000003 589.7329999999998 258.402 589.7469999999998 258.488 589.7469999999998C258.637 589.7469999999998 258.784 589.7029999999999 258.909 589.6169999999998C259.10699999999997 589.4819999999999 259.22499999999997 589.2599999999999 259.22499999999997 589.0229999999998V580.7859999999998L262.763 582.0679999999999V601.2369999999999ZM257.751 580.252V587.9849999999999L251.265 585.6339999999999V577.901ZM252.657 576.856L258.488 574.7429999999999L264.319 576.856L258.488 578.97ZM263.5 580.792L260.609 579.744L266.703 577.5360000000001C266.993 577.431 267.185 577.1600000000001 267.185 576.8560000000001C267.185 576.5530000000001 266.993 576.2820000000002 266.703 576.1770000000001L258.743 573.2920000000001C258.578 573.2330000000002 258.39799999999997 573.2330000000002 258.233 573.2920000000001L250.52 576.0880000000002L247.866 575.1260000000002L263.5 569.4610000000002L279.134 575.1260000000002ZM280.526 595.334L264.237 601.237V582.068L280.526 576.165Z " fill="#787878" fill-opacity="1" transform="matrix(1,0,0,1,-245,-567)"></path></svg>