<svg id="SvgjsSvg1014" xmlns="http://www.w3.org/2000/svg" version="1.1" xmlns:xlink="http://www.w3.org/1999/xlink" xmlns:svgjs="http://svgjs.com/svgjs" width="30" height="32" viewBox="0 0 30 32"><title>Forma 1</title><desc>Created with Avocode.</desc><defs id="SvgjsDefs1015"></defs><path id="SvgjsPath1016" d="M912.085 64.815H906.09V63.9135C906.09 63.408899999999996 905.6800000000001 62.9997 905.1750000000001 62.9997C904.6700000000001 62.9997 904.2600000000001 63.408899999999996 904.2600000000001 63.9135V64.815H898.9150000000001V63.9135C898.9150000000001 63.408899999999996 898.5050000000001 62.9997 898.0000000000001 62.9997C897.4950000000001 62.9997 897.0850000000002 63.408899999999996 897.0850000000002 63.9135V64.815H891.9670000000001V63.9135C891.9670000000001 63.408899999999996 891.5570000000001 62.9997 891.0520000000001 62.9997C890.5470000000001 62.9997 890.1370000000002 63.408899999999996 890.1370000000002 63.9135V64.815H883.9150000000002C883.4100000000002 64.815 883.0000000000002 65.224 883.0000000000002 65.7285V86.3767C883.0000000000002 86.8809 883.4100000000002 87.2905 883.9150000000002 87.2905H889.5300000000002C890.4300000000002 91.1304 893.8850000000002 93.9994 898.0000000000002 93.9994C902.1150000000002 93.9994 905.5690000000002 91.13019999999999 906.4690000000003 87.2905H912.0850000000003C912.5900000000003 87.2905 913.0000000000002 86.8809 913.0000000000002 86.3767V65.7285C913.0000000000002 65.224 912.5900000000003 64.815 912.0850000000003 64.815ZM890.137 66.6423V67.4681C890.137 67.97290000000001 890.5469999999999 68.3819 891.0519999999999 68.3819C891.5569999999999 68.3819 891.9669999999999 67.9729 891.9669999999999 67.4681V66.6423H897.0849999999999V67.4681C897.0849999999999 67.97290000000001 897.4949999999999 68.3819 897.9999999999999 68.3819C898.5049999999999 68.3819 898.9149999999998 67.9729 898.9149999999998 67.4681V66.6423H904.2599999999999V67.4681C904.2599999999999 67.97290000000001 904.6699999999998 68.3819 905.1749999999998 68.3819C905.6799999999998 68.3819 906.0899999999998 67.9729 906.0899999999998 67.4681V66.6423H911.1699999999998V70.37920000000001H884.8299999999998V66.6423ZM898 92.1721C894.212 92.1721 891.13 89.0938 891.13 85.3102C891.13 81.5269 894.212 78.4485 898 78.4485C901.788 78.4485 904.87 81.5266 904.87 85.3102C904.87 89.094 901.788 92.1721 898 92.1721ZM906.696 85.4626C906.697 85.4117 906.7 85.3616 906.7 85.3102C906.7 80.5191 902.797 76.62089999999999 898 76.62089999999999C893.203 76.62089999999999 889.3 80.5191 889.3 85.3102C889.3 85.3616 889.303 85.4117 889.304 85.4626H884.8299999999999V72.207H911.17V85.4626ZM898.915 85.5409V81.1202C898.915 80.6157 898.505 80.2064 898 80.2064C897.495 80.2064 897.085 80.6157 897.085 81.1202V85.9196C897.085 86.1619 897.181 86.3944 897.3530000000001 86.5659L899.456 88.6662C899.634 88.8445 899.868 88.934 900.1030000000001 88.934C900.3370000000001 88.934 900.571 88.8445 900.7500000000001 88.6662C901.1070000000001 88.3094 901.1070000000001 87.7308 900.7500000000001 87.37400000000001Z " fill="#ffd800" fill-opacity="1" transform="matrix(1,0,0,1,-883,-62)"></path></svg>