<svg id="SvgjsSvg1077" xmlns="http://www.w3.org/2000/svg" version="1.1" xmlns:xlink="http://www.w3.org/1999/xlink" xmlns:svgjs="http://svgjs.com/svgjs" width="44" height="30" viewBox="0 0 44 30"><title>Shape 1</title><desc>Created with Avocode.</desc><defs id="SvgjsDefs1078"></defs><path id="SvgjsPath1079" d="M551.852 594.2C551.0369999999999 594.2 550.37 594.8520000000001 550.37 595.6500000000001C550.37 596.4470000000001 551.037 597.1000000000001 551.852 597.1000000000001C552.667 597.1000000000001 553.333 596.4470000000001 553.333 595.6500000000001C553.333 594.8520000000001 552.6669999999999 594.2 551.852 594.2ZM577.111 594.2C576.2959999999999 594.2 575.63 594.8520000000001 575.63 595.6500000000001C575.63 596.4470000000001 576.296 597.1000000000001 577.111 597.1000000000001C577.926 597.1000000000001 578.593 596.4470000000001 578.593 595.6500000000001C578.593 594.8520000000001 577.9259999999999 594.2 577.111 594.2ZM574.889 589.125H573.407C572.9630000000001 589.125 572.667 589.414 572.667 589.849C572.667 590.2850000000001 572.9630000000001 590.575 573.407 590.575H574.889C575.333 590.575 575.63 590.2850000000001 575.63 589.849C575.63 589.4140000000001 575.333 589.125 574.889 589.125ZM585.037 587.602L582.148 586.442L580.296 579.192C580.0740000000001 578.177 579.1850000000001 577.524 578.148 577.524H574.2570000000001C575.229 574.599 575.599 572.061 575.6300000000001 571.797C575.6300000000001 571.58 575.5560000000002 571.434 575.4810000000001 571.217C575.3330000000001 571.072 575.1110000000001 570.999 574.8890000000001 570.999H548.1480000000001C547.7780000000001 570.999 547.4810000000001 571.217 547.4810000000001 571.58L547.0550000000001 573.899H544.3700000000001C543.9260000000002 573.899 543.6300000000001 574.189 543.6300000000001 574.624C543.6300000000001 575.059 543.9260000000002 575.349 544.3700000000001 575.349H546.7880000000001L546.5210000000001 576.8000000000001H543.8520000000001C543.407 576.8000000000001 543.1110000000001 577.089 543.1110000000001 577.5240000000001C543.1110000000001 577.9590000000001 543.4070000000002 578.2490000000001 543.8520000000001 578.2490000000001H546.2550000000001L545.988 579.6990000000002H543.3330000000001C542.8890000000001 579.6990000000002 542.5930000000001 579.9900000000002 542.5930000000001 580.4240000000002C542.5930000000001 580.8600000000002 542.8890000000001 581.1500000000002 543.3330000000001 581.1500000000002H545.7210000000001L545.4550000000002 582.6000000000003H542.7410000000001C542.296 582.6000000000003 542.0000000000001 582.8890000000002 542.0000000000001 583.3250000000003C542.0000000000001 583.7600000000002 542.2960000000002 584.0490000000003 542.7410000000001 584.0490000000003H545.1880000000001L544.815 586.0790000000003C544.798 586.1270000000003 544.7900000000001 586.1760000000003 544.788 586.2240000000003L543.037 595.5050000000002C542.9630000000001 595.7220000000002 542.9630000000001 595.8670000000002 543.111 596.0850000000003C543.259 596.3020000000002 543.481 596.3740000000003 543.704 596.3740000000003H547.471C547.826 598.4250000000003 549.66 600.0000000000002 551.852 600.0000000000002C554.044 600.0000000000002 555.877 598.4250000000002 556.233 596.3740000000003H572.7299999999999C573.0849999999999 598.4250000000003 574.9189999999999 600.0000000000002 577.1109999999999 600.0000000000002C579.3029999999999 600.0000000000002 581.1369999999998 598.4250000000002 581.4919999999998 596.3740000000003H584.5179999999998C585.3329999999999 596.3740000000003 585.9999999999998 595.7220000000002 585.9999999999998 594.9250000000003V588.9790000000003C585.9999999999998 588.3270000000002 585.6299999999998 587.8200000000003 585.0369999999998 587.6020000000003ZM554.889 582.6H546.971L547.235 581.15H555.481C555.852 581.15 556.222 580.86 556.222 580.425C556.222 579.99 555.9259999999999 579.6999999999999 555.481 579.6999999999999H547.498L547.7610000000001 578.2489999999999H556.0000000000001C556.4440000000001 578.2489999999999 556.7410000000001 577.959 556.7410000000001 577.5239999999999C556.7410000000001 577.0899999999999 556.4440000000001 576.7999999999998 556.0000000000001 576.7999999999998H548.0250000000001L548.2880000000001 575.3489999999998H556.5180000000001C556.9630000000002 575.3489999999998 557.2590000000001 575.0589999999999 557.2590000000001 574.6249999999998C557.2590000000001 574.1889999999997 556.9630000000001 573.8999999999997 556.5180000000001 573.8999999999997H548.5510000000002L548.8150000000002 572.4499999999997H574.0000000000001C573.7820000000002 573.6969999999997 573.2520000000001 576.1949999999997 572.2710000000001 578.6739999999998C571.0580000000001 581.7039999999997 569.037 585.0079999999997 565.9610000000001 585.4489999999997C565.9410000000001 585.4519999999998 565.9210000000002 585.4549999999997 565.9000000000001 585.4579999999997C565.8580000000001 585.4629999999997 565.815 585.4689999999997 565.772 585.4729999999997C565.7040000000001 585.4799999999997 565.6350000000001 585.4859999999998 565.567 585.4899999999998C565.544 585.4909999999998 565.52 585.4919999999997 565.497 585.4929999999998C565.418 585.4969999999998 565.3389999999999 585.4999999999998 565.2589999999999 585.4999999999998H546.4439999999998L546.7079999999999 584.0499999999997H554.9629999999999C555.3329999999999 584.0499999999997 555.6299999999999 583.7599999999998 555.6299999999999 583.3249999999997C555.6299999999999 582.8899999999998 555.3329999999999 582.5999999999997 554.8889999999999 582.5999999999997ZM551.852 598.55C550.222 598.55 548.889 597.245 548.889 595.65C548.889 594.055 550.222 592.75 551.852 592.75C553.481 592.75 554.8149999999999 594.055 554.8149999999999 595.65C554.8149999999999 597.245 553.481 598.55 551.852 598.55ZM577.111 598.55C575.481 598.55 574.148 597.245 574.148 595.65C574.148 594.055 575.481 592.75 577.111 592.75C578.741 592.75 580.074 594.055 580.074 595.65C580.074 597.245 578.741 598.55 577.111 598.55ZM581.492 594.925C581.137 592.8739999999999 579.303 591.3 577.111 591.3C577.099 591.3 577.088 591.3 577.076 591.3C577.063 591.3 577.0500000000001 591.3 577.037 591.3C574.815 591.3 573.037 592.894 572.667 594.925H556.2330000000001C555.9830000000001 593.482 555.0010000000001 592.276 553.677 591.6869999999999C553.647 591.6739999999999 553.618 591.6599999999999 553.589 591.6479999999999C553.57 591.6399999999999 553.551 591.6329999999999 553.532 591.6249999999999C553.484 591.6059999999999 553.436 591.5869999999999 553.3870000000001 591.5689999999998C553.374 591.5639999999999 553.3610000000001 591.5599999999998 553.3470000000001 591.5549999999998C553.2930000000001 591.5359999999998 553.238 591.5179999999998 553.1830000000001 591.4999999999999C553.1710000000002 591.4969999999998 553.1590000000001 591.4929999999999 553.1470000000002 591.4889999999999C553.0910000000001 591.473 553.0340000000001 591.4569999999999 552.9770000000002 591.4419999999999C552.9640000000002 591.4389999999999 552.9520000000002 591.4359999999999 552.9390000000002 591.4319999999999C552.8820000000002 591.4189999999999 552.8260000000001 591.406 552.7690000000002 591.3939999999999C552.7540000000002 591.3909999999998 552.7400000000002 591.3879999999999 552.7260000000002 591.3849999999999C552.6700000000002 591.3739999999999 552.6150000000002 591.3639999999999 552.5590000000002 591.3559999999999C552.5420000000001 591.3529999999998 552.5260000000002 591.3499999999999 552.5090000000002 591.3479999999998C552.4550000000003 591.3399999999998 552.4010000000003 591.3329999999999 552.3460000000002 591.3269999999999C552.3270000000002 591.3249999999999 552.3090000000002 591.3229999999999 552.2910000000003 591.3209999999999C552.2360000000003 591.3159999999999 552.1810000000003 591.3119999999999 552.1260000000003 591.309C552.1070000000003 591.308 552.0890000000003 591.3059999999999 552.0710000000004 591.305C551.9990000000004 591.3009999999999 551.9250000000004 591.3 551.8520000000003 591.3C551.7780000000004 591.3 551.7050000000003 591.3009999999999 551.6320000000003 591.305C551.6140000000003 591.3059999999999 551.5960000000003 591.308 551.5780000000003 591.309C551.5220000000003 591.312 551.4670000000003 591.3159999999999 551.4130000000004 591.3209999999999C551.3940000000003 591.3229999999999 551.3760000000003 591.3249999999999 551.3570000000003 591.3269999999999C551.3030000000003 591.3329999999999 551.2480000000003 591.3399999999999 551.1940000000003 591.3479999999998C551.1780000000003 591.3499999999998 551.1610000000003 591.3529999999998 551.1450000000003 591.3559999999999C551.0890000000003 591.3639999999999 551.0330000000004 591.3739999999999 550.9780000000003 591.3849999999999C550.9630000000003 591.3879999999999 550.9490000000003 591.3909999999998 550.9350000000003 591.3939999999999C550.8770000000003 591.4059999999998 550.8210000000003 591.4189999999999 550.7640000000002 591.4319999999999C550.7520000000003 591.4359999999999 550.7390000000003 591.4389999999999 550.7260000000002 591.4419999999999C550.6690000000002 591.4569999999999 550.6120000000002 591.4729999999998 550.5560000000003 591.4899999999999C550.5440000000003 591.4929999999999 550.5320000000003 591.4969999999998 550.5200000000003 591.5009999999999C550.4650000000004 591.5179999999999 550.4100000000003 591.5359999999998 550.3560000000003 591.5549999999998C550.3430000000003 591.5599999999998 550.3290000000003 591.5639999999999 550.3160000000004 591.5689999999998C550.2670000000004 591.5869999999999 550.2190000000004 591.6059999999999 550.1710000000004 591.6249999999999C550.1520000000004 591.6329999999999 550.1330000000004 591.6399999999999 550.1150000000004 591.6479999999999C550.0850000000004 591.6599999999999 550.0560000000004 591.6739999999999 550.0260000000003 591.6869999999999C548.7020000000003 592.276 547.7210000000003 593.4819999999999 547.4710000000003 594.925H544.5930000000003L546.1480000000003 586.9499999999999H565.2590000000002C565.3640000000003 586.9499999999999 565.4670000000002 586.9469999999999 565.5700000000003 586.9419999999999C565.5770000000002 586.9419999999999 565.5840000000003 586.9419999999999 565.5910000000002 586.9409999999999C569.7050000000003 586.7389999999999 572.2400000000002 582.7909999999999 573.7340000000003 578.9749999999999H578.1480000000003C578.5180000000003 578.9749999999999 578.8150000000003 579.2649999999999 578.8890000000002 579.555L580.5760000000002 586.2249999999999H577.3330000000002C576.8150000000002 586.2249999999999 576.3700000000002 585.79 576.3700000000002 585.2819999999999V581.8749999999999C576.3700000000002 581.4399999999999 576.0740000000002 581.1499999999999 575.6300000000002 581.1499999999999C575.1850000000002 581.1499999999999 574.8890000000002 581.4399999999998 574.8890000000002 581.8749999999999V585.2819999999999C574.8890000000002 586.5869999999999 576.0000000000002 587.675 577.3330000000002 587.675H581.2590000000002L584.5190000000002 588.9069999999999V594.925Z " fill="#787878" fill-opacity="1" transform="matrix(1,0,0,1,-542,-570)"></path></svg>