<svg id="SvgjsSvg1020" xmlns="http://www.w3.org/2000/svg" version="1.1" xmlns:xlink="http://www.w3.org/1999/xlink" xmlns:svgjs="http://svgjs.com/svgjs" width="9" height="7" viewBox="0 0 9 7"><title>Forma 1</title><desc>Created with Avocode.</desc><defs id="SvgjsDefs1021"></defs><path id="SvgjsPath1022" d="M287.836 863.966L287.047 863.165C286.939 863.055 286.807 863 286.65200000000004 863C286.49700000000007 863 286.36600000000004 863.055 286.25700000000006 863.165L282.44900000000007 867.035L280.74300000000005 865.298C280.63400000000007 865.188 280.50300000000004 865.133 280.34800000000007 865.133C280.1930000000001 865.133 280.0610000000001 865.188 279.9530000000001 865.298L279.1640000000001 866.099C279.0550000000001 866.2090000000001 279.0010000000001 866.3420000000001 279.0010000000001 866.499C279.0010000000001 866.657 279.05500000000006 866.7900000000001 279.1640000000001 866.9L281.2650000000001 869.0319999999999L282.0550000000001 869.834C282.1630000000001 869.944 282.2940000000001 869.9989999999999 282.4490000000001 869.9989999999999C282.6040000000001 869.9989999999999 282.7360000000001 869.944 282.8440000000001 869.834L283.6340000000001 869.0319999999999L287.8360000000001 864.7679999999999C287.9450000000001 864.6579999999999 287.99900000000014 864.5239999999999 287.99900000000014 864.367C287.99900000000014 864.2099999999999 287.94500000000016 864.0759999999999 287.8360000000001 863.966Z " fill="#36398b" fill-opacity="1" transform="matrix(1,0,0,1,-279,-863)"></path></svg>