<svg id="SvgjsSvg1024" xmlns="http://www.w3.org/2000/svg" version="1.1" xmlns:xlink="http://www.w3.org/1999/xlink" xmlns:svgjs="http://svgjs.com/svgjs" width="17" height="17" viewBox="0 0 17 17"><title>Forma 1</title><desc>Created with Avocode.</desc><defs id="SvgjsDefs1025"></defs><path id="SvgjsPath1026" d="M992.995 570.735C992.324 569.585 991.414 568.676 990.265 568.005C989.116 567.334 987.861 566.999 986.5 566.999C985.139 566.999 983.884 567.3340000000001 982.735 568.005C981.586 568.675 980.676 569.585 980.005 570.735C979.334 571.884 978.999 573.139 978.999 574.5C978.999 575.861 979.3340000000001 577.116 980.005 578.265C980.676 579.414 981.585 580.324 982.735 580.995C983.884 581.665 985.139 582.001 986.5 582.001C987.861 582.001 989.116 581.665 990.265 580.995C991.414 580.324 992.324 579.414 992.995 578.265C993.666 577.116 994.001 575.861 994.001 574.5C994.001 573.139 993.6659999999999 571.884 992.995 570.735ZM991.1 577.166C990.625 577.98 989.98 578.625 989.166 579.1C988.3520000000001 579.575 987.464 579.813 986.5 579.813C985.536 579.813 984.648 579.5749999999999 983.834 579.1C983.02 578.625 982.375 577.98 981.9 577.166C981.424 576.3520000000001 981.187 575.464 981.187 574.5C981.187 573.536 981.4250000000001 572.647 981.9 571.833C982.375 571.019 983.02 570.375 983.834 569.9C984.6469999999999 569.424 985.536 569.187 986.5 569.187C987.464 569.187 988.352 569.424 989.166 569.9C989.98 570.375 990.625 571.019 991.1 571.833C991.576 572.6469999999999 991.813 573.536 991.813 574.5C991.813 575.464 991.576 576.352 991.1 577.166ZM987.438 570.749H986.812C986.721 570.749 986.647 570.779 986.588 570.837C986.529 570.896 986.5 570.97 986.5 571.062V574.5H984.312C984.221 574.5 984.146 574.529 984.087 574.588C984.029 574.646 984 574.721 984 574.812V575.437C984 575.529 984.029 575.6030000000001 984.087 575.662C984.146 575.721 984.221 575.75 984.312 575.75H987.438C987.529 575.75 987.604 575.721 987.662 575.662C987.721 575.6030000000001 987.75 575.529 987.75 575.437V571.062C987.75 570.971 987.721 570.896 987.662 570.837C987.604 570.779 987.529 570.749 987.438 570.749Z " fill="#36398b" fill-opacity="1" transform="matrix(1,0,0,1,-978,-566)"></path></svg>