<svg id="SvgjsSvg1012" xmlns="http://www.w3.org/2000/svg" version="1.1" xmlns:xlink="http://www.w3.org/1999/xlink" xmlns:svgjs="http://svgjs.com/svgjs" width="14" height="14" viewBox="0 0 14 14"><title>Forma 1</title><desc>Created with Avocode.</desc><defs id="SvgjsDefs1013"></defs><path id="SvgjsPath1014" d="M756.203 677.173C755.941 676.9110000000001 755.941 676.474 756.203 676.203C756.475 675.9399999999999 756.9019999999999 675.9399999999999 757.174 676.203L763 682.0369999999999L768.835 676.203C769.097 675.9399999999999 769.534 675.9399999999999 769.796 676.203C770.0680000000001 676.4739999999999 770.0680000000001 676.9119999999999 769.796 677.173L763.97 682.998L769.796 688.832C770.0680000000001 689.0939999999999 770.0680000000001 689.531 769.796 689.803C769.5340000000001 690.0649999999999 769.0970000000001 690.0649999999999 768.835 689.803L763 683.969L757.174 689.803C756.9019999999999 690.0649999999999 756.475 690.0649999999999 756.203 689.803C755.941 689.531 755.941 689.094 756.203 688.832L762.029 682.998Z " fill="#767676" fill-opacity="1" transform="matrix(1,0,0,1,-756,-676)"></path></svg>