<svg id="SvgjsSvg1017" xmlns="http://www.w3.org/2000/svg" version="1.1" xmlns:xlink="http://www.w3.org/1999/xlink" xmlns:svgjs="http://svgjs.com/svgjs" width="10" height="8" viewBox="0 0 10 8"><title>Forma 1</title><desc>Created with Avocode.</desc><defs id="SvgjsDefs1018"></defs><path id="SvgjsPath1019" d="M312.737 204.184C312.79200000000003 204.131 312.82000000000005 204.069 312.82000000000005 204C312.82000000000005 203.93 312.79200000000003 203.869 312.737 203.815L308.877 200.07999999999998C308.822 200.02599999999998 308.758 199.99999999999997 308.687 199.99999999999997C308.615 199.99999999999997 308.551 200.02699999999996 308.49600000000004 200.07999999999998L308.08200000000005 200.48C308.02700000000004 200.534 307.999 200.595 307.999 200.665C307.999 200.73399999999998 308.02700000000004 200.796 308.08200000000005 200.849L311.33700000000005 204L308.08200000000005 207.15C308.02700000000004 207.203 307.999 207.26500000000001 307.999 207.334C307.999 207.404 308.02700000000004 207.465 308.08200000000005 207.519L308.49600000000004 207.919C308.55100000000004 207.973 308.61500000000007 208 308.687 208C308.759 208 308.822 207.973 308.877 207.919ZM311.263 200.48C311.20799999999997 200.534 311.17999999999995 200.595 311.17999999999995 200.665C311.17999999999995 200.73399999999998 311.20799999999997 200.796 311.263 200.849L314.518 204L311.263 207.15C311.207 207.203 311.17999999999995 207.26500000000001 311.17999999999995 207.334C311.17999999999995 207.404 311.20699999999994 207.465 311.263 207.519L311.67699999999996 207.919C311.73199999999997 207.973 311.796 208 311.86699999999996 208C311.93899999999996 208 312.003 207.973 312.05799999999994 207.919L315.91799999999995 204.184C315.97299999999996 204.131 316.001 204.069 316.001 204C316.001 203.93 315.97299999999996 203.869 315.91799999999995 203.815L312.05799999999994 200.07999999999998C312.00299999999993 200.02599999999998 311.9389999999999 199.99999999999997 311.86699999999996 199.99999999999997C311.79599999999994 199.99999999999997 311.73199999999997 200.02699999999996 311.67699999999996 200.07999999999998Z " fill="#747474" fill-opacity="1" transform="matrix(1,0,0,1,-307,-200)"></path></svg>