<svg xmlns="http://www.w3.org/2000/svg" viewBox="0 0 231.523 231.523"><path d="M107.415 145.798c.4 3.858 3.656 6.73 7.45 6.73.26 0 .52-.013.78-.04 4.12-.426 7.116-4.11 6.69-8.23l-3.46-33.47c-.425-4.12-4.112-7.11-8.23-6.688-4.12.426-7.115 4.11-6.69 8.23l3.46 33.468zM154.35 152.488c.263.027.523.04.78.04 3.797 0 7.053-2.872 7.452-6.73l3.458-33.468c.426-4.12-2.57-7.806-6.69-8.23-4.122-.422-7.805 2.57-8.23 6.688l-3.46 33.468c-.425 4.12 2.57 7.806 6.69 8.232zM96.278 185.088c-12.8 0-23.215 10.414-23.215 23.215 0 12.804 10.414 23.22 23.215 23.22 12.8 0 23.216-10.416 23.216-23.22 0-12.8-10.415-23.215-23.216-23.215zm0 31.435c-4.53 0-8.215-3.688-8.215-8.22 0-4.53 3.685-8.216 8.215-8.216 4.53 0 8.216 3.685 8.216 8.215 0 4.533-3.686 8.22-8.216 8.22zM173.72 185.088c-12.802 0-23.217 10.414-23.217 23.215 0 12.804 10.414 23.22 23.216 23.22 12.8 0 23.217-10.416 23.217-23.22 0-12.8-10.416-23.215-23.218-23.215zm0 31.435c-4.53 0-8.217-3.688-8.217-8.22 0-4.53 3.686-8.216 8.216-8.216 4.53 0 8.217 3.685 8.217 8.215 0 4.533-3.686 8.22-8.218 8.22z"/><path d="M218.58 79.08c-1.42-1.837-3.61-2.913-5.933-2.913H63.152l-6.278-24.14c-.86-3.306-3.844-5.613-7.26-5.613H18.877c-4.142 0-7.5 3.358-7.5 7.5s3.358 7.5 7.5 7.5h24.94l6.227 23.946c.03.134.066.267.104.398l23.157 89.046c.86 3.305 3.844 5.612 7.26 5.612h108.873c3.415 0 6.4-2.307 7.26-5.612l23.21-89.25c.583-2.245.093-4.636-1.327-6.474zm-34.942 86.338H86.362l-19.31-74.25H202.95l-19.31 74.25zM105.556 52.85c1.464 1.464 3.383 2.196 5.302 2.196 1.92 0 3.84-.733 5.305-2.198 2.928-2.93 2.927-7.68-.003-10.607L92.573 18.666c-2.93-2.928-7.678-2.927-10.607.002-2.928 2.93-2.927 7.68.002 10.607l23.588 23.577zM159.174 55.045c1.92 0 3.84-.733 5.306-2.2l23.552-23.572c2.928-2.93 2.925-7.68-.005-10.606-2.93-2.928-7.68-2.925-10.606.005l-23.55 23.573c-2.93 2.93-2.926 7.68.004 10.607 1.464 1.462 3.382 2.193 5.3 2.193zM135.006 48.31h.002c4.14 0 7.5-3.356 7.5-7.497l.008-33.31c0-4.143-3.356-7.502-7.498-7.503-4.143 0-7.5 3.357-7.502 7.498l-.008 33.31c0 4.143 3.356 7.502 7.498 7.503z"/></svg>