<svg id="SvgjsSvg1014" xmlns="http://www.w3.org/2000/svg" version="1.1" xmlns:xlink="http://www.w3.org/1999/xlink" xmlns:svgjs="http://svgjs.com/svgjs" width="59" height="53" viewBox="0 0 59 53"><title>Shape 1</title><desc>Created with Avocode.</desc><defs id="SvgjsDefs1015"></defs><path id="SvgjsPath1016" d="M461.911 3393.45C461.262 3393.45 460.736 3393.97 460.736 3394.62V3395.08C460.736 3395.72 461.262 3396.25 461.911 3396.25C462.56 3396.25 463.087 3395.72 463.087 3395.08V3394.62C463.087 3393.97 462.56 3393.45 461.911 3393.45ZM474.825 3418.67H473.267V3374.94C473.267 3371.12 470.092 3368 466.191 3368H426.80899999999997C422.92499999999995 3368 419.76399999999995 3371.12 419.76399999999995 3374.94V3418.67H418.17499999999995C417.52599999999995 3418.67 416.99999999999994 3419.19 416.99999999999994 3419.84C416.99999999999994 3420.48 417.52599999999995 3421 418.17499999999995 3421H423.64099999999996C424.28999999999996 3421 424.81699999999995 3420.48 424.81699999999995 3419.84C424.81699999999995 3419.19 424.28999999999996 3418.67 423.64099999999996 3418.67H422.11499999999995V3376.11H429.91299999999995V3399.4300000000003C429.61699999999996 3399.9500000000003 429.448 3400.5400000000004 429.448 3401.1800000000003V3403.4700000000003H428.835C428.186 3403.4700000000003 427.65999999999997 3403.9900000000002 427.65999999999997 3404.6400000000003C427.65999999999997 3405.28 428.186 3405.8 428.835 3405.8H429.448V3408.52C428.256 3408.95 427.404 3410.08 427.404 3411.41C427.404 3413.1099999999997 428.802 3414.5 430.521 3414.5H440.736C442.454 3414.5 443.852 3413.11 443.852 3411.41C443.852 3410.08 443.001 3408.95 441.80899999999997 3408.52V3405.8H442.42199999999997C443.07099999999997 3405.8 443.597 3405.28 443.597 3404.6400000000003C443.597 3403.9900000000002 443.07099999999997 3403.4700000000003 442.42199999999997 3403.4700000000003H441.80899999999997V3401.1800000000003C441.80899999999997 3400.5400000000004 441.64 3399.9500000000003 441.344 3399.4300000000003V3376.11H451.657V3399.4300000000003C451.361 3399.9500000000003 451.191 3400.5400000000004 451.191 3401.1800000000003V3403.4700000000003H450.578C449.929 3403.4700000000003 449.40299999999996 3403.9900000000002 449.40299999999996 3404.6400000000003C449.40299999999996 3405.28 449.929 3405.8 450.578 3405.8H451.191V3408.52C450 3408.95 449.14799999999997 3410.08 449.14799999999997 3411.41C449.14799999999997 3413.1099999999997 450.546 3414.5 452.26399999999995 3414.5H462.4789999999999C464.1979999999999 3414.5 465.59599999999995 3413.11 465.59599999999995 3411.41C465.59599999999995 3410.08 464.74399999999997 3408.95 463.55299999999994 3408.52V3405.8H464.16499999999996C464.81399999999996 3405.8 465.34 3405.28 465.34 3404.6400000000003C465.34 3403.9900000000002 464.81399999999996 3403.4700000000003 464.16499999999996 3403.4700000000003H463.55299999999994V3401.1800000000003C463.55299999999994 3399.2100000000005 461.93299999999994 3397.61 459.9429999999999 3397.61H454.80099999999993C454.5279999999999 3397.61 454.2629999999999 3397.6400000000003 454.00699999999995 3397.69V3376.11H460.73599999999993V3390.8900000000003C460.73599999999993 3391.5400000000004 461.2629999999999 3392.0600000000004 461.91099999999994 3392.0600000000004C462.5609999999999 3392.0600000000004 463.08699999999993 3391.5400000000004 463.08699999999993 3390.8900000000003V3376.11H470.91599999999994V3418.67H469.3589999999999C468.7099999999999 3418.67 468.18299999999994 3419.19 468.18299999999994 3419.84C468.18299999999994 3420.48 468.7099999999999 3421 469.3589999999999 3421H474.82499999999993C475.47399999999993 3421 475.99999999999994 3420.48 475.99999999999994 3419.84C475.99999999999994 3419.19 475.47399999999993 3418.67 474.82499999999993 3418.67ZM441.502 3411.41C441.502 3411.83 441.158 3412.17 440.736 3412.17H430.521C430.098 3412.17 429.755 3411.83 429.755 3411.41C429.755 3410.99 430.098 3410.6499999999996 430.521 3410.6499999999996H440.736C441.158 3410.6499999999996 441.502 3410.99 441.502 3411.41ZM438.993 3397.69C438.737 3397.64 438.472 3397.61 438.199 3397.61H433.057C432.785 3397.61 432.519 3397.6400000000003 432.264 3397.69V3376.11H438.993ZM433.057 3399.93H438.199C438.894 3399.93 439.459 3400.49 439.459 3401.18V3408.33H431.798V3401.18C431.798 3400.49 432.363 3399.93 433.057 3399.93ZM462.479 3410.65C462.901 3410.65 463.245 3410.9900000000002 463.245 3411.4100000000003C463.245 3411.8300000000004 462.901 3412.1700000000005 462.479 3412.1700000000005H452.264C451.842 3412.1700000000005 451.498 3411.8300000000004 451.498 3411.4100000000003C451.498 3410.9900000000002 451.842 3410.65 452.264 3410.65ZM454.801 3399.93H459.943C460.637 3399.93 461.202 3400.49 461.202 3401.18V3408.33H453.541V3401.18C453.541 3400.49 454.106 3399.93 454.801 3399.93ZM463.087 3373.78V3373.2200000000003C463.087 3372.5800000000004 462.56 3372.0600000000004 461.911 3372.0600000000004C461.262 3372.0600000000004 460.736 3372.5800000000004 460.736 3373.2200000000003V3373.78H454.007V3373.2200000000003C454.007 3372.5800000000004 453.481 3372.0600000000004 452.832 3372.0600000000004C452.183 3372.0600000000004 451.656 3372.5800000000004 451.656 3373.2200000000003V3373.78H441.343V3373.2200000000003C441.343 3372.5800000000004 440.817 3372.0600000000004 440.168 3372.0600000000004C439.519 3372.0600000000004 438.993 3372.5800000000004 438.993 3373.2200000000003V3373.78H432.264V3373.2200000000003C432.264 3372.5800000000004 431.738 3372.0600000000004 431.089 3372.0600000000004C430.44 3372.0600000000004 429.913 3372.5800000000004 429.913 3373.2200000000003V3373.78H422.266C422.791 3371.8 424.629 3370.3300000000004 426.809 3370.3300000000004H466.19100000000003C468.38500000000005 3370.3300000000004 470.235 3371.8 470.764 3373.78Z " fill="#aeaeae" fill-opacity="1" transform="matrix(1,0,0,1,-417,-3368)"></path></svg>