<svg id="SvgjsSvg1074" xmlns="http://www.w3.org/2000/svg" version="1.1" xmlns:xlink="http://www.w3.org/1999/xlink" xmlns:svgjs="http://svgjs.com/svgjs" width="33" height="32" viewBox="0 0 33 32"><title>Shape 1 копия</title><desc>Created with Avocode.</desc><defs id="SvgjsDefs1075"></defs><path id="SvgjsPath1076" d="M859.105 575C859.242 574.857 859.36 574.706 859.4590000000001 574.546C859.8100000000001 573.9770000000001 860.075 573.019 859.34 571.686C858.3570000000001 569.903 857.1800000000001 569 855.84 569C854.299 569 852.696 570.222 851.08 572.632C850.873 572.9409999999999 850.678 573.25 850.5 573.5469999999999C850.322 573.2499999999999 850.127 572.9409999999999 849.92 572.632C848.3019999999999 570.222 846.7009999999999 569 845.159 569C843.8199999999999 569 842.643 569.903 841.66 571.686C840.925 573.019 841.189 573.9770000000001 841.5419999999999 574.546C841.6399999999999 574.705 841.757 574.8570000000001 841.8949999999999 575H833.9999999999999V582.333H835.3749999999999V601H865.6249999999999V582.333H866.9999999999999V575ZM855.84 570.333C856.633 570.333 857.402 570.999 858.1270000000001 572.314C858.6490000000001 573.261 858.3700000000001 573.712 858.2790000000001 573.86C858.0020000000001 574.308 857.3370000000001 574.7 856.3580000000001 575H851.307C851.2950000000001 574.979 851.285 574.958 851.274 574.937C852.38 572.949 854.205 570.333 855.84 570.333ZM842.872 572.314C843.597 570.9989999999999 844.367 570.333 845.159 570.333C846.175 570.333 847.451 571.4019999999999 848.758 573.3449999999999C849.1270000000001 573.8949999999999 849.4540000000001 574.4479999999999 849.724 574.939C849.714 574.959 849.7030000000001 574.9789999999999 849.6930000000001 575H844.642C843.663 574.7 842.998 574.308 842.721 573.86C842.63 573.712 842.351 573.261 842.872 572.314ZM864.25 599.665H836.75V582.333H864.25ZM865.625 580.999H835.375V576.333H865.625ZM847.75 584.991C846.232 584.991 845 586.2239999999999 845 587.745C845 589.266 846.232 590.5 847.75 590.5C849.269 590.5 850.5 589.266 850.5 587.745C850.5 586.224 849.269 584.991 847.75 584.991ZM847.75 589.397C846.84 589.397 846.1 588.657 846.1 587.745C846.1 586.835 846.84 586.093 847.75 586.093C848.66 586.093 849.4 586.8349999999999 849.4 587.745C849.4 588.657 848.66 589.397 847.75 589.397ZM853.25 590.5C851.731 590.5 850.5 591.732 850.5 593.254C850.5 594.775 851.731 596.0070000000001 853.25 596.0070000000001C854.768 596.0070000000001 856 594.7750000000001 856 593.254C856 591.732 854.768 590.5 853.25 590.5ZM853.25 594.906C852.34 594.906 851.6 594.165 851.6 593.2539999999999C851.6 592.3419999999999 852.34 591.6009999999999 853.25 591.6009999999999C854.159 591.6009999999999 854.9 592.3419999999999 854.9 593.2539999999999C854.9 594.1649999999998 854.159 594.906 853.25 594.906ZM855.45 584.991C855.298 584.991 855.1610000000001 585.052 855.061 585.1519999999999L845.1610000000001 595.068C845.062 595.167 845.0000000000001 595.305 845.0000000000001 595.457C845.0000000000001 595.761 845.2460000000001 596.007 845.5500000000001 596.007C845.7020000000001 596.007 845.839 595.9459999999999 845.9390000000001 595.846L855.8380000000001 585.931C855.9380000000001 585.832 856.0000000000001 585.6940000000001 856.0000000000001 585.542C856.0000000000001 585.238 855.7540000000001 584.991 855.4500000000002 584.991Z " fill="#787878" fill-opacity="1" transform="matrix(1,0,0,1,-834,-569)"></path></svg>