<svg xmlns="http://www.w3.org/2000/svg" width="24" height="22" viewBox="0 0 24 22"><defs><clipPath id="a"><path d="M1288.23 135c-2.04 0-3.96.9-5.23 2.38-1.27-1.5-3.2-2.38-5.23-2.38-3.73 0-6.77 2.92-6.77 6.5 0 2.8 1.74 6.06 5.18 9.65 2.65 2.77 5.53 4.92 6.34 5.5l.48.35.47-.34c.82-.6 3.7-2.74 6.35-5.5 3.44-3.6 5.18-6.85 5.18-9.66 0-3.58-3.04-6.5-6.77-6.5z" fill="#fff"/></clipPath></defs><path d="M17.23 0C15.2 0 13.27.9 12 2.38 10.73.88 8.8 0 6.77 0 3.04 0 0 2.92 0 6.5c0 2.8 1.74 6.06 5.18 9.65 2.65 2.77 5.53 4.92 6.34 5.5L12 22l.47-.34c.82-.6 3.7-2.74 6.35-5.5C22.26 12.55 24 9.3 24 6.5 24 2.92 20.96 0 17.23 0z" fill="none"/><path d="M1288.23 135c-2.04 0-3.96.9-5.23 2.38-1.27-1.5-3.2-2.38-5.23-2.38-3.73 0-6.77 2.92-6.77 6.5 0 2.8 1.74 6.06 5.18 9.65 2.65 2.77 5.53 4.92 6.34 5.5l.48.35.47-.34c.82-.6 3.7-2.74 6.35-5.5 3.44-3.6 5.18-6.85 5.18-9.66 0-3.58-3.04-6.5-6.77-6.5z" fill="none" stroke-dasharray="0" stroke-linejoin="round" stroke-linecap="round" stroke="#111" stroke-miterlimit="50" stroke-width="4" clip-path="url(&quot;#a&quot;)" transform="translate(-1271 -135)"/></svg>