<svg xmlns="http://www.w3.org/2000/svg" width="27" height="27" viewBox="0 0 27 27"><path d="M23.07 27H2.94c-.24 0-.42-.2-.42-.42V13.84H.42c-.17 0-.33-.1-.4-.26-.05-.16 0-.34.1-.46L12.73 1.1c.16-.17.4-.17.57 0l4 3.83V2.67c0-.23.2-.42.43-.42h3.2c.23 0 .42.2.42.42v6.1l4.53 4.35c.12.12.16.3.1.46-.07.15-.22.26-.4.26h-2.1v12.74c0 .23-.18.42-.4.42zm-19.7-.84h19.28V13.84H3.35zM1.46 13h23.08L13 1.97zm16.68-7.27l2.36 2.25v-4.9h-2.35zM17.3 23.7H8.7c-.23 0-.42-.18-.42-.4v-6.47c0-.23.2-.4.42-.4h8.57c.22 0 .4.17.4.4v6.46c0 .22-.18.4-.4.4zm-3.88-.83h3.45v-2.45h-3.45zm-4.28 0h3.45v-2.45H9.13zm4.28-3.3h3.45v-2.32h-3.45zm-4.28 0h3.45v-2.32H9.13zm7.7-8.84H9.68c-.23 0-.42-.2-.42-.42 0-2.2 1.8-3.98 4-3.98s4 1.8 4 4c0 .22-.2.4-.42.4zm-6.7-.84h6.26c-.2-1.55-1.54-2.74-3.14-2.74s-2.92 1.2-3.13 2.73z"/></svg>