<svg id="SvgjsSvg1000" xmlns="http://www.w3.org/2000/svg" version="1.1" xmlns:xlink="http://www.w3.org/1999/xlink" xmlns:svgjs="http://svgjs.com/svgjs" width="83" height="64" viewBox="0 0 83 64"><title>Forma 1 копия 7</title><desc>Created with Avocode.</desc><defs id="SvgjsDefs1001"></defs><path id="SvgjsPath1007" d="M442.2 2014.58C446.687 2014.58 450.962 2014.58 450.962 2014.58L451.155 2022.4499999999998C451.022 2023.4099999999999 451.695 2022.2999999999997 452.657 2022.4299999999998C452.739 2022.4399999999998 452.82 2022.4499999999998 452.9 2022.4499999999998C453.765 2022.4499999999998 453.519 2022.8099999999997 453.64099999999996 2021.9299999999998L453.515 2014.58H458.86899999999997V2026.07H455.40599999999995C454.43399999999997 2026.07 453.64599999999996 2026.86 453.64599999999996 2027.83V2050.2999999999997C453.64599999999996 2051.2799999999997 454.43399999999997 2053.0699999999997 455.40599999999995 2053.0699999999997H458.86899999999997V2061.64H456.25399999999996C456.08689 2061.64 455.98432999999994 2061.6335 455.92907999999994 2061.6277099999998C456.07833999999997 2061.6637199999996 456.4939999999999 2061.8260899999996 456.4939999999999 2062.3999999999996C456.4939999999999 2063.3699999999994 457.2819999999999 2063.16 458.2539999999999 2063.16H458.8689999999999V2073.24C458.8689999999999 2074.2099999999996 459.6569999999999 2075 460.6289999999999 2075C461.6009999999999 2075 461.3879999999999 2074.21 461.3879999999999 2073.24V2063.16H462.0039999999999C462.9759999999999 2063.16 463.7639999999999 2063.37 463.7639999999999 2062.3999999999996C463.7639999999999 2061.4199999999996 462.9759999999999 2061.6399999999994 462.0039999999999 2061.6399999999994H461.3879999999999V2053.0699999999993H464.8519999999999C465.8239999999999 2053.0699999999993 466.61099999999993 2051.2799999999993 466.61099999999993 2050.2999999999993V2027.8299999999992C466.61099999999993 2026.8599999999992 464.82399999999996 2026.0699999999993 463.8519999999999 2026.0699999999993H461.3879999999999V2015.5799999999992H464.1859999999999L466.2539999999999 2015.9699999999993L466.0019999999999 2016.5899999999992C465.6319999999999 2017.4899999999993 466.0599999999999 2018.5199999999993 466.9589999999999 2018.8899999999992C467.1779999999999 2018.979999999999 467.4049999999999 2019.0199999999993 467.6279999999999 2019.0199999999993C468.3199999999999 2019.0199999999993 468.9759999999999 2017.6099999999992 469.25599999999986 2016.9299999999994L469.56199999999984 2016.1799999999994L480.63899999999984 2021.2399999999993C480.83799999999985 2021.3099999999993 481.04199999999986 2021.3499999999992 481.2429999999998 2021.3499999999992C481.9599999999998 2021.3499999999992 482.6349999999998 2021.8999999999992 482.89599999999984 2021.1899999999991C483.22899999999987 2020.269999999999 482.75899999999984 2019.259999999999 481.84699999999987 2018.9299999999992L470.90299999999985 2014.9199999999992L471.10299999999984 2013.4299999999992C471.4739999999998 2012.529999999999 471.04499999999985 2011.499999999999 470.14599999999984 2011.1299999999992C469.2479999999998 2010.7599999999993 468.2189999999998 2012.1899999999991 467.8489999999998 2013.0899999999992L467.5949999999998 2013.7099999999991L466.1009999999998 2013.1599999999992C465.9079999999998 2013.0899999999992 465.70299999999975 2013.0599999999993 465.4969999999998 2013.0599999999993C465.4969999999998 2013.0599999999993 453.8299999999998 2013.0599999999993 441.9999999999998 2013.0599999999993C429.83699999999976 2013.0599999999993 437.24799999999976 2014.5799999999992 442.19999999999976 2014.5799999999992ZM455.92908 2061.62771C455.86729 2061.6128000000003 455.85115 2061.6195500000003 455.92908 2061.62771ZM464.092 2050.54H456.166V2028.59H464.092ZM442.8 2014.52C438.313 2014.52 434.038 2014.52 434.038 2014.52L433.845 2022.3899999999999C433.978 2023.36 433.305 2022.2499999999998 432.34200000000004 2022.3799999999999C432.261 2022.3899999999999 432.18000000000006 2022.3999999999999 432.1 2022.3999999999999C431.235 2022.3999999999999 431.48 2022.7599999999998 431.35900000000004 2021.87L431.485 2014.52H426.13100000000003V2026.02H429.59400000000005C430.56600000000003 2026.02 431.35400000000004 2026.81 431.35400000000004 2027.79V2050.2799999999997C431.35400000000004 2051.2499999999995 430.56600000000003 2053.04 429.59400000000005 2053.04H426.13100000000003V2061.62H428.74600000000004C428.93839 2061.62 429.04522000000003 2061.61177 429.09282 2061.60617C428.96814 2061.63345 428.50600000000003 2061.78485 428.50600000000003 2062.39C428.50600000000003 2063.3599999999997 427.718 2063.15 426.74600000000004 2063.15H426.13100000000003V2073.2400000000002C426.13100000000003 2074.21 425.343 2075.0000000000005 424.37100000000004 2075.0000000000005C423.39900000000006 2075.0000000000005 423.61100000000005 2074.2100000000005 423.61100000000005 2073.2400000000002V2063.15H422.99600000000004C422.02400000000006 2063.15 421.23600000000005 2063.36 421.23600000000005 2062.39C421.23600000000005 2061.41 422.02400000000006 2061.62 422.99600000000004 2061.62H423.61100000000005V2053.04H420.148C419.17600000000004 2053.04 418.389 2051.25 418.389 2050.2799999999997V2027.7899999999997C418.389 2026.8099999999997 420.176 2026.0199999999998 421.148 2026.0199999999998H423.61100000000005V2015.5199999999998H420.814L418.74600000000004 2015.9199999999998L418.99800000000005 2016.5299999999997C419.36800000000005 2017.4299999999998 418.94000000000005 2018.4599999999998 418.04100000000005 2018.8299999999997C417.82200000000006 2018.9199999999996 417.595 2018.9699999999998 417.37200000000007 2018.9699999999998C416.68000000000006 2018.9699999999998 416.02400000000006 2017.5499999999997 415.7440000000001 2016.87L415.4380000000001 2016.1299999999999L404.3610000000001 2021.1899999999998C404.1620000000001 2021.2599999999998 403.9580000000001 2021.2899999999997 403.7570000000001 2021.2899999999997C403.0390000000001 2021.2899999999997 402.3650000000001 2021.8499999999997 402.1040000000001 2021.1399999999996C401.7710000000001 2020.2199999999996 402.2400000000001 2019.2099999999996 403.1530000000001 2018.8699999999997L414.0970000000001 2014.8599999999997L413.8960000000001 2013.3699999999997C413.52600000000007 2012.4699999999996 413.9550000000001 2011.4399999999996 414.85300000000007 2011.0699999999997C415.75200000000007 2010.6999999999998 416.7800000000001 2012.1299999999997 417.1500000000001 2013.0299999999997L417.4050000000001 2013.6499999999996L418.8990000000001 2013.0999999999997C419.0920000000001 2013.0299999999997 419.29700000000014 2012.9999999999998 419.5030000000001 2012.9999999999998C419.5030000000001 2012.9999999999998 431.1700000000001 2012.9999999999998 443.0000000000001 2012.9999999999998C455.1630000000001 2012.9999999999998 447.7520000000001 2014.5199999999998 442.8000000000001 2014.5199999999998ZM429.09282 2061.60617C429.13009 2061.59802 429.1372 2061.60095 429.09282 2061.60617ZM420.908 2050.52H428.834V2028.55H420.908Z " fill="#aeaeae" fill-opacity="1" transform="matrix(1,0,0,1,-401,-2011)"></path></svg>