<svg xmlns="http://www.w3.org/2000/svg" width="28" height="28" viewBox="0 0 28 28"><path d="M14.5 1C7.06 1 1 7.06 1 14.5S7.06 28 14.5 28 28 21.94 28 14.5 21.94 1 14.5 1zm0 19.3c-3.2 0-5.8-2.6-5.8-5.8 0-3.2 2.6-5.8 5.8-5.8 3.2 0 5.8 2.6 5.8 5.8 0 3.2-2.6 5.8-5.8 5.8zm6.5-7.22h5.9c.06 0 .12-.02.17-.04.05.48.1.96.1 1.46 0 .48-.04.96-.1 1.43-.05-.03-.1-.04-.17-.04H21c.1-.46.15-.92.15-1.4 0-.5-.06-.97-.16-1.42zm5.95-.84h-6.21c-.68-1.87-2.16-3.34-4.03-4v-6.2c5.2.92 9.3 5 10.25 10.2zM15.9 1.92c-.02.04-.04.08-.04.12V8c-.44-.1-.9-.15-1.36-.15-.5 0-.98.06-1.45.16V2.05c0-.04 0-.07-.02-.1.48-.06.97-.1 1.47-.1.47 0 .93.03 1.4.08zm-3.7.13v6.2c-1.82.7-3.28 2.15-3.94 3.98h-6.2C2.98 7.08 7.05 3 12.2 2.05zM1.93 15.9c-.05-.46-.08-.93-.08-1.4 0-.5.03-.97.1-1.44l.08.02h6c-.1.45-.17.93-.17 1.42 0 .47.05.94.15 1.4H1.92zm.12.83h6.2c.67 1.85 2.12 3.32 3.97 4v6.2C7.06 26 2.98 21.9 2.05 16.74zm10.98 10.34l.03-.15V21c.47.1.95.15 1.45.15.47 0 .92-.05 1.36-.14v5.92c0 .06.02.1.04.16-.46.05-.93.08-1.4.08-.5 0-1-.04-1.48-.1zm3.68-.1v-6.21c1.9-.66 3.38-2.15 4.06-4.03H26.96c-.93 5.2-5.05 9.3-10.26 10.23z"/></svg>