<svg id="SvgjsSvg1018" xmlns="http://www.w3.org/2000/svg" version="1.1" xmlns:xlink="http://www.w3.org/1999/xlink" xmlns:svgjs="http://svgjs.com/svgjs" width="10" height="14" viewBox="0 0 10 14"><title>Forma 1 копия 2</title><desc>Created with Avocode.</desc><defs id="SvgjsDefs1019"></defs><path id="SvgjsPath1020" d="M985 487C982.243 487 980 489.312 980 492.154C980 492.895 980.147 493.603 980.437 494.258C981.687 497.077 984.0840000000001 500.054 984.789 500.9C984.842 500.96299999999997 984.919 500.99899999999997 985 500.99899999999997C985.081 500.99899999999997 985.158 500.96299999999997 985.211 500.9C985.915 500.05499999999995 988.312 497.078 989.563 494.258C989.853 493.603 990 492.895 990 492.154C989.999 489.312 987.757 487 985 487ZM985 494.831C983.568 494.831 982.403 493.63 982.403 492.154C982.403 490.678 983.568 489.477 985 489.477C986.432 489.477 987.597 490.678 987.597 492.154C987.597 493.63 986.432 494.831 985 494.831Z " fill="#36398b" fill-opacity="1" transform="matrix(1,0,0,1,-980,-487)"></path></svg>