<svg id="SvgjsSvg1000" xmlns="http://www.w3.org/2000/svg" version="1.1" xmlns:xlink="http://www.w3.org/1999/xlink" xmlns:svgjs="http://svgjs.com/svgjs" width="11" height="14" viewBox="0 0 11 14"><title>Forma 1</title><desc>Created with Avocode.</desc><defs id="SvgjsDefs1001"></defs><path id="SvgjsPath1007" d="M1146.67 4078.77C1146.74 4078.85 1146.8100000000002 4078.91 1146.88 4078.95H1146.89L1147.0300000000002 4079L1147.1700000000003 4078.95C1147.2400000000002 4078.91 1147.3100000000004 4078.85 1147.3900000000003 4078.77C1147.3900000000003 4078.77 1151.5300000000004 4075.02 1151.9500000000003 4070.91C1151.9800000000002 4070.7 1151.9900000000002 4070.48 1151.9900000000002 4070.2599999999998C1151.9900000000002 4067.3599999999997 1149.7500000000002 4064.9999999999995 1146.9900000000002 4064.9999999999995C1144.2300000000002 4064.9999999999995 1141.9900000000002 4067.3599999999997 1141.9900000000002 4070.2599999999998C1141.9900000000002 4070.49 1142.0100000000002 4070.7 1142.0300000000002 4070.9199999999996C1142.4600000000003 4075.0299999999997 1146.6700000000003 4078.7699999999995 1146.6700000000003 4078.7699999999995ZM1146.99 4066.88C1148.77 4066.88 1150.21 4068.4 1150.21 4070.26C1150.21 4072.13 1148.77 4073.65 1146.99 4073.65C1145.22 4073.65 1143.78 4072.13 1143.78 4070.26C1143.78 4068.4 1145.22 4066.88 1146.99 4066.88Z " fill="#ffffff" fill-opacity="1" transform="matrix(1,0,0,1,-1141,-4065)"></path></svg>