<svg id="SvgjsSvg1021" xmlns="http://www.w3.org/2000/svg" version="1.1" xmlns:xlink="http://www.w3.org/1999/xlink" xmlns:svgjs="http://svgjs.com/svgjs" width="14" height="13" viewBox="0 0 14 13"><title>Forma 1 копия 5</title><desc>Created with Avocode.</desc><defs id="SvgjsDefs1022"></defs><path id="SvgjsPath1023" d="M991.993 536.259C992.0210000000001 536.47 991.9570000000001 536.654 991.801 536.8100000000001L989.97 538.628C989.888 538.72 989.78 538.798 989.647 538.8620000000001C989.514 538.926 989.383 538.9680000000001 989.255 538.9860000000001C989.246 538.9860000000001 989.218 538.988 989.172 538.993C989.126 538.9970000000001 989.067 539 988.993 539C988.8190000000001 539 988.537 538.97 988.147 538.91C987.7570000000001 538.85 987.2800000000001 538.703 986.716 538.4689999999999C986.151 538.2349999999999 985.511 537.8839999999999 984.796 537.4159999999999C984.08 536.948 983.3190000000001 536.305 982.5110000000001 535.4879999999999C981.869 534.8549999999999 981.3370000000001 534.2489999999999 980.9150000000001 533.67C980.493 533.092 980.1530000000001 532.5569999999999 979.8960000000001 532.0659999999999C979.6400000000001 531.5749999999999 979.4470000000001 531.1289999999999 979.3180000000001 530.7299999999999C979.19 530.3309999999999 979.1030000000001 529.9859999999999 979.0570000000001 529.6969999999999C979.0110000000001 529.4079999999999 978.9930000000002 529.1809999999999 979.0020000000002 529.0159999999998C979.0110000000002 528.8499999999998 979.0160000000002 528.7589999999999 979.0160000000002 528.7399999999999C979.0340000000002 528.6119999999999 979.0750000000002 528.4809999999999 979.1400000000002 528.3479999999998C979.2040000000002 528.2149999999998 979.2820000000003 528.1069999999999 979.3740000000003 528.0239999999999L981.2040000000003 526.1929999999999C981.3320000000003 526.0639999999999 981.4790000000003 525.9999999999999 981.6440000000003 525.9999999999999C981.7640000000004 525.9999999999999 981.8690000000004 526.0339999999999 981.9610000000004 526.1029999999998C982.0530000000003 526.1719999999998 982.1310000000003 526.2569999999998 982.1950000000004 526.3579999999998L983.6670000000004 529.1529999999998C983.7500000000003 529.2999999999998 983.7730000000004 529.4609999999998 983.7360000000003 529.6349999999998C983.6990000000003 529.8099999999997 983.6220000000003 529.9569999999998 983.5020000000003 530.0759999999998L982.8280000000003 530.7509999999997C982.8100000000003 530.7689999999998 982.7930000000003 530.7989999999998 982.7800000000003 530.8399999999998C982.7660000000003 530.8819999999998 982.7590000000004 530.9159999999998 982.7590000000004 530.9439999999998C982.7960000000004 531.1359999999999 982.8780000000004 531.3569999999999 983.0070000000004 531.6049999999998C983.1170000000004 531.8249999999998 983.2870000000004 532.0929999999998 983.5160000000004 532.4099999999997C983.7450000000005 532.7269999999997 984.0710000000004 533.0919999999998 984.4930000000004 533.5049999999998C984.9060000000004 533.9269999999998 985.2730000000004 534.2549999999998 985.5940000000004 534.4899999999998C985.9150000000004 534.7239999999998 986.1830000000004 534.8959999999997 986.3990000000003 535.0059999999997C986.6150000000004 535.1159999999998 986.7800000000003 535.1829999999998 986.8950000000003 535.2059999999998L987.0670000000003 535.2399999999998C987.0850000000004 535.2399999999998 987.1150000000004 535.2329999999998 987.1560000000004 535.2189999999998C987.1970000000005 535.2059999999998 987.2270000000004 535.1899999999998 987.2450000000005 535.1709999999998L988.0300000000004 534.3719999999998C988.1950000000004 534.2259999999999 988.3880000000004 534.1519999999998 988.6080000000004 534.1519999999998C988.7640000000004 534.1519999999998 988.8880000000004 534.1799999999998 988.9800000000004 534.2349999999998H988.9930000000004L991.6490000000003 535.8049999999998C991.8420000000003 535.9239999999999 991.9570000000003 536.0749999999998 991.9930000000004 536.2589999999998Z " fill="#36398b" fill-opacity="1" transform="matrix(1,0,0,1,-978,-526)"></path></svg>