<svg id="SvgjsSvg1000" xmlns="http://www.w3.org/2000/svg" version="1.1" xmlns:xlink="http://www.w3.org/1999/xlink" xmlns:svgjs="http://svgjs.com/svgjs" width="18" height="18" viewBox="0 0 18 18"><title>Эллипс 8</title><desc>Created with Avocode.</desc><defs id="SvgjsDefs1001"></defs><path id="SvgjsPath1007" d="M270 394C274.971 394 279 398.029 279 403C279 407.971 274.971 412 270 412C265.029 412 261 407.971 261 403C261 398.029 265.029 394 270 394Z " fill="#d0d0d0" fill-opacity="1" transform="matrix(1,0,0,1,-261,-394)"></path><path id="SvgjsPath1008" d="M272.728 399.048C272.664 398.984 272.559 398.984 272.495 399.048L270.116 401.426C270.05199999999996 401.49 269.947 401.49 269.883 401.426L267.505 399.048C267.441 398.984 267.336 398.984 267.272 399.048L266.048 400.271C265.984 400.336 265.984 400.44100000000003 266.048 400.505L268.426 402.883C268.49 402.947 268.49 403.05199999999996 268.426 403.116L266.048 405.495C265.984 405.559 265.984 405.664 266.048 405.728L267.272 406.952C267.336 407.016 267.441 407.016 267.505 406.952L269.883 404.573C269.947 404.50899999999996 270.05199999999996 404.50899999999996 270.116 404.573L272.495 406.952C272.559 407.016 272.664 407.016 272.728 406.952L273.952 405.728C274.016 405.664 274.016 405.559 273.952 405.495L271.573 403.116C271.50899999999996 403.05199999999996 271.50899999999996 402.947 271.573 402.883L273.952 400.505C274.016 400.441 274.016 400.336 273.952 400.271Z " fill="#ffffff" fill-opacity="1" transform="matrix(1,0,0,1,-261,-394)"></path></svg>