<svg id="SvgjsSvg1068" xmlns="http://www.w3.org/2000/svg" version="1.1" xmlns:xlink="http://www.w3.org/1999/xlink" xmlns:svgjs="http://svgjs.com/svgjs" width="10" height="13" viewBox="0 0 10 13"><title>Forma 1 копия 2</title><desc>Created with Avocode.</desc><defs id="SvgjsDefs1069"></defs><path id="SvgjsPath1070" d="M1252.25 509.09H1254V510.727C1254 510.806 1254.02 510.871 1254.07 510.923C1254.12 510.973 1254.1799999999998 510.999 1254.25 510.999H1255.55C1255.62 510.999 1255.68 510.973 1255.73 510.923C1255.78 510.871 1255.8 510.806 1255.8 510.727V509.09H1259.75C1259.82 509.09 1259.88 509.06399999999996 1259.93 509.01399999999995C1259.98 508.96199999999993 1260 508.89699999999993 1260 508.81699999999995V507.72599999999994C1260 507.64699999999993 1259.98 507.58099999999996 1259.93 507.53099999999995C1259.88 507.4789999999999 1259.8200000000002 507.453 1259.75 507.453H1255.8V506.448H1258.46C1259.5 506.448 1260.3500000000001 506.102 1261.01 505.40799999999996C1261.67 504.715 1262 503.82099999999997 1262 502.72399999999993C1262 501.62699999999995 1261.67 500.7319999999999 1261.01 500.03899999999993C1260.35 499.34599999999995 1259.5 498.9989999999999 1258.46 498.9989999999999H1254.25C1254.18 498.9989999999999 1254.12 499.0249999999999 1254.07 499.0759999999999C1254.02 499.1259999999999 1254 499.1929999999999 1254 499.27199999999993V504.63199999999995H1252.25C1252.18 504.63199999999995 1252.12 504.65999999999997 1252.07 504.71299999999997C1252.02 504.76699999999994 1252 504.832 1252 504.905V506.17499999999995C1252 506.25499999999994 1252.02 506.31999999999994 1252.07 506.371C1252.12 506.42199999999997 1252.1799999999998 506.448 1252.25 506.448H1254V507.453H1252.25C1252.18 507.453 1252.12 507.479 1252.07 507.53099999999995C1252.02 507.58099999999996 1252 507.64699999999993 1252 507.72599999999994V508.81699999999995C1252 508.89699999999993 1252.02 508.96199999999993 1252.07 509.01399999999995C1252.12 509.06399999999996 1252.1799999999998 509.09 1252.25 509.09ZM1255.8 500.815H1258.3C1258.86 500.815 1259.3 500.991 1259.6399999999999 501.343C1259.9799999999998 501.696 1260.1499999999999 502.156 1260.1499999999999 502.724C1260.1499999999999 503.292 1259.9799999999998 503.752 1259.6399999999999 504.104C1259.3 504.457 1258.86 504.633 1258.3 504.633H1255.8Z " fill="#000000" fill-opacity="1" transform="matrix(1,0,0,1,-1252,-498)"></path></svg>