<svg id="SvgjsSvg1000" xmlns="http://www.w3.org/2000/svg" version="1.1" xmlns:xlink="http://www.w3.org/1999/xlink" xmlns:svgjs="http://svgjs.com/svgjs" width="16" height="17" viewBox="0 0 16 17"><title>Forma 1</title><desc>Created with Avocode.</desc><defs id="SvgjsDefs1001"></defs><path id="SvgjsPath1007" d="M809.14 70.8022L812.735 67.2071C813.966 68.2225 815.497 68.7745 817.11 68.7745C818.952 68.7745 820.679 68.0594 821.982 66.7569C823.285 65.4572 824 63.7262 824 61.8883C824 60.0496 823.285 58.3196 821.982 57.016600000000004C820.682 55.7137 818.952 54.9983 817.11 54.9983C815.272 54.9983 813.541 55.7137 812.238 57.0166C810.9390000000001 58.3163 810.221 60.046499999999995 810.221 61.888299999999994C810.221 63.50469999999999 810.772 65.0362 811.788 66.2635L808.196 69.85849999999999C807.9350000000001 70.1198 807.9350000000001 70.5414 808.196 70.8022C808.457 71.0632 808.879 71.0632 809.14 70.8022ZM813.185 57.96C814.2339999999999 56.908500000000004 815.6279999999999 56.3307 817.1099999999999 56.3307C818.5929999999998 56.3307 819.9899999999999 56.908500000000004 821.0379999999999 57.9571C822.0859999999999 59.0053 822.6639999999999 60.39919999999999 822.6639999999999 61.885C822.6639999999999 63.3671 822.0859999999999 64.7648 821.0379999999999 65.8128C819.9899999999999 66.8607 818.5959999999999 67.439 817.1099999999999 67.439C815.6279999999999 67.439 814.2299999999999 66.8607 813.1819999999999 65.8128C812.1339999999999 64.7648 811.5559999999999 63.36709999999999 811.5559999999999 61.885C811.5559999999999 60.4028 812.1339999999999 59.0087 813.185 57.96Z " fill="#3a3c88" fill-opacity="1" transform="matrix(1,0,0,1,-808,-54)"></path></svg>