<svg id="SvgjsSvg1008" xmlns="http://www.w3.org/2000/svg" version="1.1" xmlns:xlink="http://www.w3.org/1999/xlink" xmlns:svgjs="http://svgjs.com/svgjs" width="8" height="14" viewBox="0 0 8 14"><title>Forma 1 копия 3</title><desc>Created with Avocode.</desc><defs id="SvgjsDefs1009"></defs><path id="SvgjsPath1010" d="M1149.97 4104H1144.03C1143.46 4104 1143 4104.46 1143 4105.02V4116.9800000000005C1143 4117.540000000001 1143.46 4118.000000000001 1144.03 4118.000000000001H1149.97C1150.54 4118.000000000001 1151 4117.540000000001 1151 4116.9800000000005V4105.02C1151 4104.46 1150.54 4104 1149.97 4104ZM1145.53 4104.62H1148.47C1148.54 4104.62 1148.6000000000001 4104.73 1148.6000000000001 4104.87C1148.6000000000001 4105 1148.5400000000002 4105.11 1148.47 4105.11H1145.53C1145.46 4105.11 1145.3999999999999 4105 1145.3999999999999 4104.87C1145.3999999999999 4104.73 1145.4599999999998 4104.62 1145.53 4104.62ZM1147 4116.99C1146.64 4116.99 1146.34 4116.7 1146.34 4116.34C1146.34 4115.9800000000005 1146.6399999999999 4115.6900000000005 1147 4115.6900000000005C1147.36 4115.6900000000005 1147.66 4115.9800000000005 1147.66 4116.34C1147.66 4116.7 1147.3600000000001 4116.99 1147 4116.99ZM1150.23 4114.76H1143.77V4105.72H1150.23Z " fill="#ffffff" fill-opacity="1" transform="matrix(1,0,0,1,-1143,-4104)"></path></svg>