<svg id="SvgjsSvg1011" xmlns="http://www.w3.org/2000/svg" version="1.1" xmlns:xlink="http://www.w3.org/1999/xlink" xmlns:svgjs="http://svgjs.com/svgjs" width="18" height="29" viewBox="0 0 18 29"><title>Forma 1</title><desc>Created with Avocode.</desc><defs id="SvgjsDefs1012"></defs><path id="SvgjsPath1013" d="M549.145 64.9998H536.8539999999999C535.8299999999999 64.9998 534.992 65.84989999999999 534.992 66.8911V91.1074C534.992 92.1481 535.8299999999999 92.9995 536.8539999999999 92.9995H549.145C550.169 92.9995 551.008 92.1497 551.008 91.1082V66.8911C551.008 65.84989999999999 550.169 64.9998 549.145 64.9998ZM541.034 66.363H544.966C545.091 66.363 545.191 66.4654 545.191 66.5927C545.191 66.71879999999999 545.091 66.82109999999999 544.966 66.82109999999999H541.034C540.91 66.82109999999999 540.808 66.71879999999999 540.808 66.5927C540.808 66.46539999999999 540.91 66.363 541.034 66.363ZM543 92.0544C542.486 92.0544 542.069 91.63080000000001 542.069 91.1082C542.069 90.58539999999999 542.486 90.1629 543 90.1629C543.514 90.1629 543.931 90.58539999999999 543.931 91.1082C543.931 91.6308 543.514 92.0544 543 92.0544ZM549.712 89.4994H536.288V67.99879999999999H549.712Z " fill="#ffd800" fill-opacity="1" transform="matrix(1,0,0,1,-534,-64)"></path></svg>