<svg id="SvgjsSvg1011" xmlns="http://www.w3.org/2000/svg" version="1.1" xmlns:xlink="http://www.w3.org/1999/xlink" xmlns:svgjs="http://svgjs.com/svgjs" width="59" height="55" viewBox="0 0 59 55"><title>Shape 1</title><desc>Created with Avocode.</desc><defs id="SvgjsDefs1012"></defs><path id="SvgjsPath1013" d="M474.825 2993.58H473.267V2948.21C473.267 2944.23 470.093 2941 466.191 2941H426.80899999999997C422.92499999999995 2941 419.76399999999995 2944.23 419.76399999999995 2948.21V2993.58H418.17499999999995C417.52599999999995 2993.58 416.99999999999994 2994.13 416.99999999999994 2994.79C416.99999999999994 2995.46 417.52599999999995 2996 418.17499999999995 2996H423.64099999999996C424.28999999999996 2996 424.81699999999995 2995.46 424.81699999999995 2994.79C424.81699999999995 2994.13 424.28999999999996 2993.58 423.64099999999996 2993.58H422.11499999999995V2949.41H431.08899999999994V2959.29C429.6619999999999 2959.8 428.63499999999993 2961.19 428.63499999999993 2962.82C428.63499999999993 2964.8900000000003 430.2699999999999 2966.57 432.27899999999994 2966.57C434.28799999999995 2966.57 435.9219999999999 2964.8900000000003 435.9219999999999 2962.82C435.9219999999999 2961.1800000000003 434.8809999999999 2959.78 433.4389999999999 2959.28V2949.4100000000003H442.4889999999999V2959.2900000000004C441.06299999999993 2959.8000000000006 440.03599999999994 2961.1900000000005 440.03599999999994 2962.8200000000006C440.03599999999994 2964.890000000001 441.66999999999996 2966.5700000000006 443.6789999999999 2966.5700000000006C445.68799999999993 2966.5700000000006 447.3229999999999 2964.890000000001 447.3229999999999 2962.8200000000006C447.3229999999999 2961.1800000000007 446.28099999999995 2959.7800000000007 444.83899999999994 2959.2800000000007V2949.4100000000008H453.93399999999997V2993.580000000001H452.376C451.727 2993.580000000001 451.20099999999996 2994.130000000001 451.20099999999996 2994.790000000001C451.20099999999996 2995.460000000001 451.727 2996.000000000001 452.376 2996.000000000001H457.842C458.49199999999996 2996.000000000001 459.018 2995.460000000001 459.018 2994.790000000001C459.018 2994.130000000001 458.49199999999996 2993.580000000001 457.842 2993.580000000001H456.28499999999997V2985.890000000001H464.24699999999996C464.89599999999996 2985.890000000001 465.42199999999997 2985.350000000001 465.42199999999997 2984.6800000000007C465.42199999999997 2984.0100000000007 464.89599999999996 2983.4700000000007 464.24699999999996 2983.4700000000007H456.28499999999997V2979.850000000001H470.91599999999994V2993.580000000001H469.35799999999995C468.70899999999995 2993.580000000001 468.18299999999994 2994.130000000001 468.18299999999994 2994.790000000001C468.18299999999994 2995.460000000001 468.70899999999995 2996.000000000001 469.35799999999995 2996.000000000001H474.82399999999996C475.47399999999993 2996.000000000001 475.99999999999994 2995.460000000001 475.99999999999994 2994.790000000001C475.99999999999994 2994.130000000001 475.47399999999993 2993.580000000001 474.82499999999993 2993.580000000001ZM433.572 2962.82C433.572 2963.56 432.992 2964.15 432.279 2964.15C431.566 2964.15 430.986 2963.56 430.986 2962.82C430.986 2962.09 431.566 2961.5 432.279 2961.5C432.992 2961.5 433.572 2962.09 433.572 2962.82ZM444.972 2962.82C444.972 2963.56 444.392 2964.15 443.679 2964.15C442.96599999999995 2964.15 442.38599999999997 2963.56 442.38599999999997 2962.82C442.38599999999997 2962.09 442.96599999999995 2961.5 443.679 2961.5C444.392 2961.5 444.972 2962.09 444.972 2962.82ZM444.84 2947V2946.42C444.84 2945.75 444.313 2945.21 443.664 2945.21C443.015 2945.21 442.489 2945.75 442.489 2946.42V2947H433.43899999999996V2946.42C433.43899999999996 2945.75 432.91299999999995 2945.21 432.26399999999995 2945.21C431.61499999999995 2945.21 431.08899999999994 2945.75 431.08899999999994 2946.42V2947H422.26599999999996C422.79099999999994 2944.94 424.62899999999996 2943.41 426.80899999999997 2943.41H466.191C468.385 2943.41 470.23499999999996 2944.94 470.76399999999995 2947ZM470.916 2977.44H456.28499999999997V2973.81H470.91599999999994ZM470.916 2971.4H456.28499999999997V2967.78H470.91599999999994ZM470.916 2965.36H456.28499999999997V2961.6200000000003H470.91599999999994ZM456.285 2959.2V2955.58H470.91600000000005V2959.2ZM456.285 2953.16V2949.41H470.91600000000005V2953.16ZM468.243 2983.47H468.008C467.359 2983.47 466.83299999999997 2984.0099999999998 466.83299999999997 2984.68C466.83299999999997 2985.35 467.359 2985.89 468.008 2985.89H468.243C468.892 2985.89 469.418 2985.35 469.418 2984.68C469.418 2984.0099999999998 468.892 2983.47 468.243 2983.47Z " fill="#aeaeae" fill-opacity="1" transform="matrix(1,0,0,1,-417,-2941)"></path></svg>