<svg id="SvgjsSvg1083" xmlns="http://www.w3.org/2000/svg" version="1.1" xmlns:xlink="http://www.w3.org/1999/xlink" xmlns:svgjs="http://svgjs.com/svgjs" width="20" height="18" viewBox="0 0 20 18"><title>Forma 1 копия 4</title><desc>Created with Avocode.</desc><defs id="SvgjsDefs1084"></defs><path id="SvgjsPath1085" d="M322.438 729.279L324.731 734.646L330.601 735.145C331.008 735.18 331.174 735.682 330.865 735.947L326.41200000000003 739.7620000000001L327.74600000000004 745.437C327.83900000000006 745.831 327.40700000000004 746.142 327.057 745.932L322.01300000000003 742.923L316.968 745.932C316.617 746.141 316.18600000000004 745.83 316.279 745.437L317.613 739.7620000000001L313.16 735.946C312.851 735.681 313.01500000000004 735.179 313.42400000000004 735.144L319.293 734.645L321.586 729.279C321.745 728.906 322.279 728.906 322.438 729.279Z " fill="#ffd800" fill-opacity="1" transform="matrix(1,0,0,1,-312,-728)"></path></svg>