<?xml version="1.0" encoding="iso-8859-1"?>
<!-- Generator: Adobe Illustrator 16.0.0, SVG Export Plug-In . SVG Version: 6.00 Build 0)  -->
<!DOCTYPE svg PUBLIC "-//W3C//DTD SVG 1.1//EN" "http://www.w3.org/Graphics/SVG/1.1/DTD/svg11.dtd">
<svg version="1.1" id="Capa_1" xmlns="http://www.w3.org/2000/svg" xmlns:xlink="http://www.w3.org/1999/xlink" x="0px" y="0px"
	 width="337.079px" height="337.079px" viewBox="0 0 337.079 337.079" style="enable-background:new 0 0 337.079 337.079;"
	 xml:space="preserve">
<g>
	<path d="M168.543,0.003C75.609,0.003,0,75.606,0,168.546c0,92.93,75.609,168.53,168.543,168.53
		c92.93,0,168.536-75.601,168.536-168.53C337.079,75.606,261.473,0.003,168.543,0.003z M206.655,136
		c8.989,0,16.267,7.292,16.267,16.27c0,8.978-7.277,16.271-16.267,16.271s-16.268-7.293-16.268-16.271
		C190.388,143.292,197.666,136,206.655,136z M130.434,136c8.989,0,16.282,7.292,16.282,16.27c0,8.978-7.293,16.271-16.282,16.271
		c-8.986,0-16.264-7.293-16.264-16.271C114.169,143.292,121.447,136,130.434,136z M251.234,240.207
		c-4.521,5.116-12.304,5.572-17.401,1.081c-17.144-15.145-39.199-23.491-62.104-23.491c-25.8,0-49.849,10.257-67.726,28.884
		c-2.429,2.533-5.674,3.807-8.902,3.807c-3.081,0-6.143-1.153-8.53-3.447c-4.912-4.713-5.077-12.514-0.375-17.426
		c22.581-23.526,52.956-36.479,85.538-36.479c28.935,0,56.778,10.52,78.426,29.646C255.264,227.309,255.744,235.103,251.234,240.207
		z"/>
</g>
<g>
</g>
<g>
</g>
<g>
</g>
<g>
</g>
<g>
</g>
<g>
</g>
<g>
</g>
<g>
</g>
<g>
</g>
<g>
</g>
<g>
</g>
<g>
</g>
<g>
</g>
<g>
</g>
<g>
</g>
</svg>
