<svg xmlns="http://www.w3.org/2000/svg" width="24" height="28" viewBox="0 0 24 28"><path d="M22.86 3.28l-1.1-1.1v-.02C20.1.6 17.48.6 15.93 2.16l-.76.78-.77-.77C12.75.6 10.14.6 8.6 2.16l-.77.77-.76-.77C5.4.6 2.8.6 1.24 2.16l-1.1 1.1c-.14.14-.18.34-.12.52L6.7 21.32v2.5C6.7 26.2 9.24 28 11.5 28c1.12 0 2.3-.42 3.22-1.16 1.02-.8 1.58-1.88 1.58-3.02v-2.4L22.97 3.8c.06-.2.03-.4-.1-.52zm-13.6-.4c1.2-1.2 3.2-1.2 4.48 0l.9.9-2.4 10.7h-1.57l-2.3-10.7zm-8.22.87l.9-.88c1.18-1.2 3.18-1.2 4.45 0l1 1 2.27 10.6H4.9zM11.5 27.02c-1.6 0-3.45-1.15-3.78-2.7h7.56c-.32 1.55-2.17 2.7-3.78 2.7zm3.84-3.7H7.67v-1.5h7.67zm.14-2.48H7.56l-2.3-5.4h12.5zm2.64-6.37h-4.88l2.38-10.6 1-1c1.18-1.2 3.2-1.2 4.46 0l.88.88z"/></svg>