<svg id="SvgjsSvg1008" xmlns="http://www.w3.org/2000/svg" version="1.1" xmlns:xlink="http://www.w3.org/1999/xlink" xmlns:svgjs="http://svgjs.com/svgjs" width="56" height="63" viewBox="0 0 56 63"><title>Shape 1</title><desc>Created with Avocode.</desc><defs id="SvgjsDefs1009"></defs><path id="SvgjsPath1010" d="M474.726 2427.49H472.3V2368.25C472.3 2367.56 471.73 2367 471.027 2367C470.324 2367 469.75399999999996 2367.56 469.75399999999996 2368.25V2375.01H449.31399999999996V2368.25C449.31399999999996 2367.56 448.74399999999997 2367 448.03999999999996 2367C447.337 2367 446.76699999999994 2367.56 446.76699999999994 2368.25V2390.84H426.2459999999999V2387.23C426.2459999999999 2386.53 425.67599999999993 2385.97 424.9729999999999 2385.97C424.2699999999999 2385.97 423.6999999999999 2386.5299999999997 423.6999999999999 2387.23V2427.4900000000002H421.2739999999999C420.5699999999999 2427.4900000000002 419.9999999999999 2428.05 419.9999999999999 2428.7400000000002C419.9999999999999 2429.44 420.5699999999999 2430.0000000000005 421.2739999999999 2430.0000000000005H428.6719999999999C429.3759999999999 2430.0000000000005 429.9459999999999 2429.4400000000005 429.9459999999999 2428.7400000000002C429.9459999999999 2428.05 429.3759999999999 2427.4900000000002 428.6719999999999 2427.4900000000002H426.2459999999999V2416.8700000000003H446.76699999999994V2427.4900000000002H444.34099999999995C443.638 2427.4900000000002 443.0679999999999 2428.05 443.0679999999999 2428.7400000000002C443.0679999999999 2429.44 443.6379999999999 2430.0000000000005 444.34099999999995 2430.0000000000005H451.73999999999995C452.4429999999999 2430.0000000000005 453.013 2429.4400000000005 453.013 2428.7400000000002C453.013 2428.05 452.443 2427.4900000000002 451.73999999999995 2427.4900000000002H449.31399999999996V2416.8700000000003H460.40799999999996C461.11199999999997 2416.8700000000003 461.68199999999996 2416.3100000000004 461.68199999999996 2415.61C461.68199999999996 2414.92 461.11199999999997 2414.36 460.40799999999996 2414.36H449.31399999999996V2409.03H469.75399999999996V2427.4900000000002H467.32699999999994C466.62399999999997 2427.4900000000002 466.0539999999999 2428.05 466.0539999999999 2428.7400000000002C466.0539999999999 2429.44 466.6239999999999 2430.0000000000005 467.32699999999994 2430.0000000000005H474.72599999999994C475.4289999999999 2430.0000000000005 475.99999999999994 2429.4400000000005 475.99999999999994 2428.7400000000002C475.99999999999994 2428.05 475.42999999999995 2427.4900000000002 474.72599999999994 2427.4900000000002ZM446.767 2414.36H426.246V2409.03H446.767ZM446.767 2406.52H426.246V2401.19H446.767ZM446.767 2398.68H426.246V2393.35H446.767ZM449.314 2406.52V2401.19H469.754V2406.52ZM449.314 2398.68V2393.35H469.754V2398.68ZM449.314 2390.84V2385.36H469.754V2390.84ZM449.314 2382.85V2377.52H469.754V2382.85ZM465.818 2414.36H465.49899999999997C464.796 2414.36 464.22599999999994 2414.92 464.22599999999994 2415.61C464.22599999999994 2416.31 464.79599999999994 2416.8700000000003 465.49899999999997 2416.8700000000003H465.818C466.52099999999996 2416.8700000000003 467.091 2416.3100000000004 467.091 2415.61C467.091 2414.92 466.521 2414.36 465.818 2414.36Z " fill="#aeaeae" fill-opacity="1" transform="matrix(1,0,0,1,-420,-2367)"></path></svg>